FFmpeg version SVN-r25716, Copyright (c) 2000-2010 the FFmpeg developers  built on Nov 10 2010 12:23:18 with gcc 4.1.2 20080704 (Red Hat 4.1.2-48)  configuration: --enable-libmp3lame --enable-shared --disable-mmx --arch=x86_64  libavutil     50.33. 0 / 50.33. 0  libavcore      0.12. 1 /  0.12. 1  libavcodec    52.94. 4 / 52.94. 4  libavformat   52.84. 0 / 52.84. 0  libavdevice   52. 2. 2 / 52. 2. 2  libavfilter    1.59. 0 /  1.59. 0  libswscale     0.12. 0 /  0.12. 0Seems stream 0 codec frame rate differs from container frame rate: 1000.00 (1000/1) -> 12.00 (12/1)Input #0, mov,mp4,m4a,3gp,3g2,mj2, from '/RAID10/data/converted_video_files/9056.mov':  Metadata:    major_brand     : qt      minor_version   : 537199360    compatible_brands: qt    Duration: 00:00:38.33, start: 0.000000, bitrate: 6491 kb/s    Stream #0.0(eng): Video: mpeg4, yuv420p, 640x480 [PAR 1:1 DAR 4:3], 6490 kb/s, 12 fps, 12 tbr, 60 tbn, 1k tbc[buffer @ 0x100ed260] w:640 h:480 pixfmt:yuv420pOutput #0, flv, to '/RAID10/data/converted_video_files/9056.flv':  Metadata:    encoder         : Lavf52.84.0    Stream #0.0(eng): Video: flv, yuv420p, 640x480 [PAR 1:1 DAR 4:3], q=2-31, 600 kb/s, 1k tbn, 24 tbcStream mapping:  Stream #0.0 -> #0.0Press [q] to stop encodingframe=   27 fps=  0 q=31.0 size=     541kB time=2.21 bitrate=2008.0kbits/s    frame=   60 fps= 59 q=31.0 size=     711kB time=4.96 bitrate=1173.9kbits/s    frame=   93 fps= 61 q=31.0 size=     897kB time=7.71 bitrate= 952.8kbits/s    frame=  125 fps= 61 q=31.0 size=    1089kB time=10.37 bitrate= 860.0kbits/s    frame=  157 fps= 62 q=31.0 size=    1286kB time=13.04 bitrate= 807.9kbits/s    frame=  189 fps= 62 q=31.0 size=    1492kB time=15.71 bitrate= 778.0kbits/s    frame=  220 fps= 62 q=31.0 size=    1683kB time=18.29 bitrate= 753.9kbits/s    frame=  249 fps= 61 q=31.0 size=    1877kB time=20.71 bitrate= 742.5kbits/s    frame=  280 fps= 61 q=31.0 size=    2073kB time=23.29 bitrate= 729.0kbits/s    frame=  311 fps= 61 q=31.0 size=    2280kB time=25.87 bitrate= 721.8kbits/s    frame=  339 fps= 61 q=31.0 size=    2485kB time=28.21 bitrate= 721.6kbits/s    frame=  366 fps= 60 q=31.0 size=    2686kB time=30.46 bitrate= 722.3kbits/s    frame=  396 fps= 60 q=31.0 size=    2888kB time=32.96 bitrate= 717.7kbits/s    frame=  428 fps= 60 q=24.8 size=    3075kB time=35.62 bitrate= 707.1kbits/s    frame=  460 fps= 61 q=31.0 Lsize=    3229kB time=38.29 bitrate= 690.8kbits/s    video:3222kB audio:0kB global headers:0kB muxing overhead 0.229457%